{
  "accessors": [
    {
      "bufferView": 2,
      "componentType": 5126,
      "count": 65532,
      "max": [
        0.5876359939575195,
        0.6437119841575623,
        0.9476591348648071
      ],
      "min": [
        -0.5912669897079468,
        -0.6956310272216797,
        -0.9390851259231567
      ],
      "type": "VEC3"
    },
    {
      "bufferView": 2,
      "byteOffset": 786384,
      "componentType": 5126,
      "count": 65532,
      "max": [
        0.9999508857727051,
        0.9999753832817078,
        0.9999504089355469
      ],
      "min": [
        -0.9999973773956299,
        -0.9999992847442627,
        -0.9999960064888
      ],
      "type": "VEC3"
    },
    {
      "bufferView": 3,
      "componentType": 5126,
      "count": 65532,
      "max": [
        0.9999226331710815,
        0.9999960064888,
        0.9991927742958069,
        1.0
      ],
      "min": [
        -0.9999892115592957,
        -0.9999195337295532,
        -0.9999155402183533,
        -1.0
      ],
      "type": "VEC4"
    },
    {
      "bufferView": 1,
      "componentType": 5126,
      "count": 65532,
      "max": [
        0.9879628419876099,
        0.9995706677436829
      ],
      "min": [
        0.0011259671300649643,
        0.012037038803100586
      ],
      "type": "VEC2"
    },
    {
      "bufferView": 1,
      "byteOffset": 524256,
      "componentType": 5126,
      "count": 65532,
      "max": [
        0.9879628419876099,
        0.9995706677436829
      ],
      "min": [
        0.0011259671300649643,
        0.012037038803100586
      ],
      "type": "VEC2"
    },
    {
      "bufferView": 1,
      "byteOffset": 1048512,
      "componentType": 5126,
      "count": 65532,
      "max": [
        0.9879628419876099,
        0.9995706677436829
      ],
      "min": [
        0.0011259671300649643,
        0.012037038803100586
      ],
      "type": "VEC2"
    },
    {
      "bufferView": 1,
      "byteOffset": 1572768,
      "componentType": 5126,
      "count": 65532,
      "max": [
        0.9879628419876099,
        0.9995706677436829
      ],
      "min": [
        0.0011259671300649643,
        0.012037038803100586
      ],
      "type": "VEC2"
    },
    {
      "bufferView": 1,
      "byteOffset": 2097024,
      "componentType": 5126,
      "count": 65532,
      "max": [
        0.9879628419876099,
        0.9995706677436829
      ],
      "min": [
        0.0011259671300649643,
        0.012037038803100586
      ],
      "type": "VEC2"
    },
    {
      "bufferView": 0,
      "componentType": 5125,
      "count": 348711,
      "type": "SCALAR"
    },
    {
      "bufferView": 2,
      "byteOffset": 1572768,
      "componentType": 5126,
      "count": 65532,
      "max": [
        0.5628319978713989,
        0.6826410293579102,
        0.9485511183738708
      ],
      "min": [
        -0.5269449949264526,
        -0.6913650631904602,
        -0.8645811080932617
      ],
      "type": "VEC3"
    },
    {
      "bufferView": 2,
      "byteOffset": 2359152,
      "componentType": 5126,
      "count": 65532,
      "max": [
        0.9999963045120239,
        0.9994866251945496,
        0.9999986886978149
      ],
      "min": [
        -0.999992847442627,
        -0.9997872114181519,
        -0.9999827742576599
      ],
      "type": "VEC3"
    },
    {
      "bufferView": 3,
      "byteOffset": 1048512,
      "componentType": 5126,
      "count": 65532,
      "max": [
        0.9999949336051941,
        0.9999949932098389,
        0.9999245405197144,
        1.0
      ],
      "min": [
        -0.9999988079071045,
        -0.999997615814209,
        -0.9997588396072388,
        -1.0
      ],
      "type": "VEC4"
    },
    {
      "bufferView": 1,
      "byteOffset": 2621280,
      "componentType": 5126,
      "count": 65532,
      "max": [
        0.9543096423149109,
        0.996181309223175
      ],
      "min": [
        0.00021511196973733604,
        0.00722956657409668
      ],
      "type": "VEC2"
    },
    {
      "bufferView": 1,
      "byteOffset": 3145536,
      "componentType": 5126,
      "count": 65532,
      "max": [
        0.9543096423149109,
        0.996181309223175
      ],
      "min": [
        0.00021511196973733604,
        0.00722956657409668
      ],
      "type": "VEC2"
    },
    {
      "bufferView": 1,
      "byteOffset": 3669792,
      "componentType": 5126,
      "count": 65532,
      "max": [
        0.9543096423149109,
        0.996181309223175
      ],
      "min": [
        0.00021511196973733604,
        0.00722956657409668
      ],
      "type": "VEC2"
    },
    {
      "bufferView": 1,
      "byteOffset": 4194048,
      "componentType": 5126,
      "count": 65532,
      "max": [
        0.9543096423149109,
        0.996181309223175
      ],
      "min": [
        0.00021511196973733604,
        0.00722956657409668
      ],
      "type": "VEC2"
    },
    {
      "bufferView": 1,
      "byteOffset": 4718304,
      "componentType": 5126,
      "count": 65532,
      "max": [
        0.9543096423149109,
        0.996181309223175
      ],
      "min": [
        0.00021511196973733604,
        0.00722956657409668
      ],
      "type": "VEC2"
    },
    {
      "bufferView": 0,
      "byteOffset": 1394844,
      "componentType": 5125,
      "count": 353412,
      "type": "SCALAR"
    },
    {
      "bufferView": 2,
      "byteOffset": 3145536,
      "componentType": 5126,
      "count": 65532,
      "max": [
        0.5545859932899475,
        0.6740400791168213,
        0.2675270438194275
      ],
      "min": [
        -0.5586469769477844,
        -0.5907990336418152,
        -0.5443940758705139
      ],
      "type": "VEC3"
    },
    {
      "bufferView": 2,
      "byteOffset": 3931920,
      "componentType": 5126,
      "count": 65532,
      "max": [
        0.999826192855835,
        0.9999632835388184,
        0.9875678420066833
      ],
      "min": [
        -0.9999948740005493,
        -0.999895453453064,
        -0.9998646378517151
      ],
      "type": "VEC3"
    },
    {
      "bufferView": 3,
      "byteOffset": 2097024,
      "componentType": 5126,
      "count": 65532,
      "max": [
        0.9998695850372314,
        0.9999998807907104,
        0.9999985694885254,
        1.0
      ],
      "min": [
        -0.9996910691261292,
        -0.9982849955558777,
        -0.9996494650840759,
        -1.0
      ],
      "type": "VEC4"
    },
    {
      "bufferView": 1,
      "byteOffset": 5242560,
      "componentType": 5126,
      "count": 65532,
      "max": [
        0.9711362719535828,
        0.9884858131408691
      ],
      "min": [
        0.07133493572473526,
        0.009633302688598633
      ],
      "type": "VEC2"
    },
    {
      "bufferView": 1,
      "byteOffset": 5766816,
      "componentType": 5126,
      "count": 65532,
      "max": [
        0.9711362719535828,
        0.9884858131408691
      ],
      "min": [
        0.07133493572473526,
        0.009633302688598633
      ],
      "type": "VEC2"
    },
    {
      "bufferView": 1,
      "byteOffset": 6291072,
      "componentType": 5126,
      "count": 65532,
      "max": [
        0.9711362719535828,
        0.9884858131408691
      ],
      "min": [
        0.07133493572473526,
        0.009633302688598633
      ],
      "type": "VEC2"
    },
    {
      "bufferView": 1,
      "byteOffset": 6815328,
      "componentType": 5126,
      "count": 65532,
      "max": [
        0.9711362719535828,
        0.9884858131408691
      ],
      "min": [
        0.07133493572473526,
        0.009633302688598633
      ],
      "type": "VEC2"
    },
    {
      "bufferView": 1,
      "byteOffset": 7339584,
      "componentType": 5126,
      "count": 65532,
      "max": [
        0.9711362719535828,
        0.9884858131408691
      ],
      "min": [
        0.07133493572473526,
        0.009633302688598633
      ],
      "type": "VEC2"
    },
    {
      "bufferView": 0,
      "byteOffset": 2808492,
      "componentType": 5125,
      "count": 355647,
      "type": "SCALAR"
    },
    {
      "bufferView": 2,
      "byteOffset": 4718304,
      "componentType": 5126,
      "count": 65532,
      "max": [
        0.5685120224952698,
        0.6448900699615479,
        -0.08775182068347931
      ],
      "min": [
        -0.5713629722595215,
        -0.6144329905509949,
        -0.6996269822120667
      ],
      "type": "VEC3"
    },
    {
      "bufferView": 2,
      "byteOffset": 5504688,
      "componentType": 5126,
      "count": 65532,
      "max": [
        0.9999576807022095,
        0.9999632835388184,
        0.9999760985374451
      ],
      "min": [
        -0.9999980926513672,
        -0.99997478723526,
        -0.7963223457336426
      ],
      "type": "VEC3"
    },
    {
      "bufferView": 3,
      "byteOffset": 3145536,
      "componentType": 5126,
      "count": 65532,
      "max": [
        0.9999582767486572,
        0.999347448348999,
        0.9999868273735046,
        1.0
      ],
      "min": [
        -0.9999397993087769,
        -0.9999956488609314,
        -0.9999712109565735,
        -1.0
      ],
      "type": "VEC4"
    },
    {
      "bufferView": 1,
      "byteOffset": 7863840,
      "componentType": 5126,
      "count": 65532,
      "max": [
        0.9927704334259033,
        0.999857485294342
      ],
      "min": [
        0.0002667583466973156,
        0.007229447364807129
      ],
      "type": "VEC2"
    },
    {
      "bufferView": 1,
      "byteOffset": 8388096,
      "componentType": 5126,
      "count": 65532,
      "max": [
        0.9927704334259033,
        0.999857485294342
      ],
      "min": [
        0.0002667583466973156,
        0.007229447364807129
      ],
      "type": "VEC2"
    },
    {
      "bufferView": 1,
      "byteOffset": 8912352,
      "componentType": 5126,
      "count": 65532,
      "max": [
        0.9927704334259033,
        0.999857485294342
      ],
      "min": [
        0.0002667583466973156,
        0.007229447364807129
      ],
      "type": "VEC2"
    },
    {
      "bufferView": 1,
      "byteOffset": 9436608,
      "componentType": 5126,
      "count": 65532,
      "max": [
        0.9927704334259033,
        0.999857485294342
      ],
      "min": [
        0.0002667583466973156,
        0.007229447364807129
      ],
      "type": "VEC2"
    },
    {
      "bufferView": 1,
      "byteOffset": 9960864,
      "componentType": 5126,
      "count": 65532,
      "max": [
        0.9927704334259033,
        0.999857485294342
      ],
      "min": [
        0.0002667583466973156,
        0.007229447364807129
      ],
      "type": "VEC2"
    },
    {
      "bufferView": 0,
      "byteOffset": 4231080,
      "componentType": 5125,
      "count": 341784,
      "type": "SCALAR"
    },
    {
      "bufferView": 2,
      "byteOffset": 6291072,
      "componentType": 5126,
      "count": 65532,
      "max": [
        0.5685120224952698,
        0.6406241059303284,
        -0.32835301756858826
      ],
      "min": [
        -0.5692949891090393,
        -0.6951259970664978,
        -0.8802001476287842
      ],
      "type": "VEC3"
    },
    {
      "bufferView": 2,
      "byteOffset": 7077456,
      "componentType": 5126,
      "count": 65532,
      "max": [
        0.9999656677246094,
        0.9934097528457642,
        0.9999871850013733
      ],
      "min": [
        -0.9999990463256836,
        -0.9999984502792358,
        -0.999435544013977
      ],
      "type": "VEC3"
    },
    {
      "bufferView": 3,
      "byteOffset": 4194048,
      "componentType": 5126,
      "count": 65532,
      "max": [
        0.9999576807022095,
        0.9999047517776489,
        0.999875009059906,
        1.0
      ],
      "min": [
        -0.9998841881752014,
        -0.9999956488609314,
        -0.9999655485153198,
        -1.0
      ],
      "type": "VEC4"
    },
    {
      "bufferView": 1,
      "byteOffset": 10485120,
      "componentType": 5126,
      "count": 65532,
      "max": [
        0.9879628419876099,
        0.9998701214790344
      ],
      "min": [
        0.00040281988913193345,
        1.806020736694336e-05
      ],
      "type": "VEC2"
    },
    {
      "bufferView": 1,
      "byteOffset": 11009376,
      "componentType": 5126,
      "count": 65532,
      "max": [
        0.9879628419876099,
        0.9998701214790344
      ],
      "min": [
        0.00040281988913193345,
        1.806020736694336e-05
      ],
      "type": "VEC2"
    },
    {
      "bufferView": 1,
      "byteOffset": 11533632,
      "componentType": 5126,
      "count": 65532,
      "max": [
        0.9879628419876099,
        0.9998701214790344
      ],
      "min": [
        0.00040281988913193345,
        1.806020736694336e-05
      ],
      "type": "VEC2"
    },
    {
      "bufferView": 1,
      "byteOffset": 12057888,
      "componentType": 5126,
      "count": 65532,
      "max": [
        0.9879628419876099,
        0.9998701214790344
      ],
      "min": [
        0.00040281988913193345,
        1.806020736694336e-05
      ],
      "type": "VEC2"
    },
    {
      "bufferView": 1,
      "byteOffset": 12582144,
      "componentType": 5126,
      "count": 65532,
      "max": [
        0.9879628419876099,
        0.9998701214790344
      ],
      "min": [
        0.00040281988913193345,
        1.806020736694336e-05
      ],
      "type": "VEC2"
    },
    {
      "bufferView": 0,
      "byteOffset": 5598216,
      "componentType": 5125,
      "count": 341697,
      "type": "SCALAR"
    },
    {
      "bufferView": 2,
      "byteOffset": 7863840,
      "componentType": 5126,
      "count": 65532,
      "max": [
        0.4592460095882416,
        0.5648991465568542,
        -0.5121859908103943
      ],
      "min": [
        -0.5114930272102356,
        -0.6940860152244568,
        -0.9500201344490051
      ],
      "type": "VEC3"
    },
    {
      "bufferView": 2,
      "byteOffset": 8650224,
      "componentType": 5126,
      "count": 65532,
      "max": [
        0.9996820092201233,
        0.9335699081420898,
        0.9998373985290527
      ],
      "min": [
        -0.9995911121368408,
        -0.9999286532402039,
        -0.9999998211860657
      ],
      "type": "VEC3"
    },
    {
      "bufferView": 3,
      "byteOffset": 5242560,
      "componentType": 5126,
      "count": 65532,
      "max": [
        0.9998874068260193,
        0.9999955892562866,
        0.9998756051063538,
        1.0
      ],
      "min": [
        -0.9999870657920837,
        -0.9998619556427002,
        -0.9999679923057556,
        -1.0
      ],
      "type": "VEC4"
    },
    {
      "bufferView": 1,
      "byteOffset": 13106400,
      "componentType": 5126,
      "count": 65532,
      "max": [
        0.9831553101539612,
        0.9999312162399292
      ],
      "min": [
        0.0008881930261850357,
        1.811981201171875e-05
      ],
      "type": "VEC2"
    },
    {
      "bufferView": 1,
      "byteOffset": 13630656,
      "componentType": 5126,
      "count": 65532,
      "max": [
        0.9831553101539612,
        0.9999312162399292
      ],
      "min": [
        0.0008881930261850357,
        1.811981201171875e-05
      ],
      "type": "VEC2"
    },
    {
      "bufferView": 1,
      "byteOffset": 14154912,
      "componentType": 5126,
      "count": 65532,
      "max": [
        0.9831553101539612,
        0.9999312162399292
      ],
      "min": [
        0.0008881930261850357,
        1.811981201171875e-05
      ],
      "type": "VEC2"
    },
    {
      "bufferView": 1,
      "byteOffset": 14679168,
      "componentType": 5126,
      "count": 65532,
      "max": [
        0.9831553101539612,
        0.9999312162399292
      ],
      "min": [
        0.0008881930261850357,
        1.811981201171875e-05
      ],
      "type": "VEC2"
    },
    {
      "bufferView": 1,
      "byteOffset": 15203424,
      "componentType": 5126,
      "count": 65532,
      "max": [
        0.9831553101539612,
        0.9999312162399292
      ],
      "min": [
        0.0008881930261850357,
        1.811981201171875e-05
      ],
      "type": "VEC2"
    },
    {
      "bufferView": 0,
      "byteOffset": 6965004,
      "componentType": 5125,
      "count": 349530,
      "type": "SCALAR"
    },
    {
      "bufferView": 2,
      "byteOffset": 9436608,
      "componentType": 5126,
      "count": 65532,
      "max": [
        0.5681290030479431,
        0.6931790709495544,
        0.34660008549690247
      ],
      "min": [
        -0.5713019967079163,
        -0.6952160000801086,
        -0.8690730929374695
      ],
      "type": "VEC3"
    },
    {
      "bufferView": 2,
      "byteOffset": 10222992,
      "componentType": 5126,
      "count": 65532,
      "max": [
        0.9999996423721313,
        0.9999622106552124,
        0.9934804439544678
      ],
      "min": [
        -0.9999948740005493,
        -0.9999984502792358,
        -0.9997878074645996
      ],
      "type": "VEC3"
    },
    {
      "bufferView": 3,
      "byteOffset": 6291072,
      "componentType": 5126,
      "count": 65532,
      "max": [
        0.999984085559845,
        0.9999877214431763,
        0.9997155070304871,
        1.0
      ],
      "min": [
        -0.9999896883964539,
        -0.9999894499778748,
        -0.9998984932899475,
        -1.0
      ],
      "type": "VEC4"
    },
    {
      "bufferView": 1,
      "byteOffset": 15727680,
      "componentType": 5126,
      "count": 65532,
      "max": [
        0.9855591058731079,
        0.9998496174812317
      ],
      "min": [
        0.0008882107213139534,
        0.0024219751358032227
      ],
      "type": "VEC2"
    },
    {
      "bufferView": 1,
      "byteOffset": 16251936,
      "componentType": 5126,
      "count": 65532,
      "max": [
        0.9855591058731079,
        0.9998496174812317
      ],
      "min": [
        0.0008882107213139534,
        0.0024219751358032227
      ],
      "type": "VEC2"
    },
    {
      "bufferView": 1,
      "byteOffset": 16776192,
      "componentType": 5126,
      "count": 65532,
      "max": [
        0.9855591058731079,
        0.9998496174812317
      ],
      "min": [
        0.0008882107213139534,
        0.0024219751358032227
      ],
      "type": "VEC2"
    },
    {
      "bufferView": 1,
      "byteOffset": 17300448,
      "componentType": 5126,
      "count": 65532,
      "max": [
        0.9855591058731079,
        0.9998496174812317
      ],
      "min": [
        0.0008882107213139534,
        0.0024219751358032227
      ],
      "type": "VEC2"
    },
    {
      "bufferView": 1,
      "byteOffset": 17824704,
      "componentType": 5126,
      "count": 65532,
      "max": [
        0.9855591058731079,
        0.9998496174812317
      ],
      "min": [
        0.0008882107213139534,
        0.0024219751358032227
      ],
      "type": "VEC2"
    },
    {
      "bufferView": 0,
      "byteOffset": 8363124,
      "componentType": 5125,
      "count": 314562,
      "type": "SCALAR"
    },
    {
      "bufferView": 2,
      "byteOffset": 11009376,
      "componentType": 5126,
      "count": 65532,
      "max": [
        0.588379979133606,
        0.6927270889282227,
        0.39043310284614563
      ],
      "min": [
        -0.5900999903678894,
        -0.6954580545425415,
        0.010167979635298252
      ],
      "type": "VEC3"
    },
    {
      "bufferView": 2,
      "byteOffset": 11795760,
      "componentType": 5126,
      "count": 65532,
      "max": [
        0.9999691843986511,
        0.998913586139679,
        0.999734103679657
      ],
      "min": [
        -0.9999557733535767,
        -0.9999942779541016,
        -0.999952495098114
      ],
      "type": "VEC3"
    },
    {
      "bufferView": 3,
      "byteOffset": 7339584,
      "componentType": 5126,
      "count": 65532,
      "max": [
        0.9999569654464722,
        0.9999804496765137,
        0.9999918937683105,
        1.0
      ],
      "min": [
        -0.9999896883964539,
        -0.999931275844574,
        -0.9996612071990967,
        -1.0
      ],
      "type": "VEC4"
    },
    {
      "bufferView": 1,
      "byteOffset": 18348960,
      "componentType": 5126,
      "count": 65532,
      "max": [
        0.9855589866638184,
        0.9996414184570313
      ],
      "min": [
        0.0001151821852545254,
        0.004825711250305176
      ],
      "type": "VEC2"
    },
    {
      "bufferView": 1,
      "byteOffset": 18873216,
      "componentType": 5126,
      "count": 65532,
      "max": [
        0.9855589866638184,
        0.9996414184570313
      ],
      "min": [
        0.0001151821852545254,
        0.004825711250305176
      ],
      "type": "VEC2"
    },
    {
      "bufferView": 1,
      "byteOffset": 19397472,
      "componentType": 5126,
      "count": 65532,
      "max": [
        0.9855589866638184,
        0.9996414184570313
      ],
      "min": [
        0.0001151821852545254,
        0.004825711250305176
      ],
      "type": "VEC2"
    },
    {
      "bufferView": 1,
      "byteOffset": 19921728,
      "componentType": 5126,
      "count": 65532,
      "max": [
        0.9855589866638184,
        0.9996414184570313
      ],
      "min": [
        0.0001151821852545254,
        0.004825711250305176
      ],
      "type": "VEC2"
    },
    {
      "bufferView": 1,
      "byteOffset": 20445984,
      "componentType": 5126,
      "count": 65532,
      "max": [
        0.9855589866638184,
        0.9996414184570313
      ],
      "min": [
        0.0001151821852545254,
        0.004825711250305176
      ],
      "type": "VEC2"
    },
    {
      "bufferView": 0,
      "byteOffset": 9621372,
      "componentType": 5125,
      "count": 333276,
      "type": "SCALAR"
    },
    {
      "bufferView": 2,
      "byteOffset": 12582144,
      "componentType": 5126,
      "count": 65532,
      "max": [
        0.5320680141448975,
        0.6897110342979431,
        0.6148251295089722
      ],
      "min": [
        -0.5481870174407959,
        -0.6952560544013977,
        0.2074340432882309
      ],
      "type": "VEC3"
    },
    {
      "bufferView": 2,
      "byteOffset": 13368528,
      "componentType": 5126,
      "count": 65532,
      "max": [
        0.9999963045120239,
        0.9999632239341736,
        0.9999757409095764
      ],
      "min": [
        -0.9997649788856506,
        -0.9999887347221375,
        -0.9998735785484314
      ],
      "type": "VEC3"
    },
    {
      "bufferView": 3,
      "byteOffset": 8388096,
      "componentType": 5126,
      "count": 65532,
      "max": [
        0.9999672174453735,
        0.9999492168426514,
        0.9997076988220215,
        1.0
      ],
      "min": [
        -0.9999988079071045,
        -0.9999585151672363,
        -0.9999819993972778,
        -1.0
      ],
      "type": "VEC4"
    },
    {
      "bufferView": 1,
      "byteOffset": 20970240,
      "componentType": 5126,
      "count": 65532,
      "max": [
        0.9927705526351929,
        0.9998912811279297
      ],
      "min": [
        0.0006469210493378341,
        0.0024219155311584473
      ],
      "type": "VEC2"
    },
    {
      "bufferView": 1,
      "byteOffset": 21494496,
      "componentType": 5126,
      "count": 65532,
      "max": [
        0.9927705526351929,
        0.9998912811279297
      ],
      "min": [
        0.0006469210493378341,
        0.0024219155311584473
      ],
      "type": "VEC2"
    },
    {
      "bufferView": 1,
      "byteOffset": 22018752,
      "componentType": 5126,
      "count": 65532,
      "max": [
        0.9927705526351929,
        0.9998912811279297
      ],
      "min": [
        0.0006469210493378341,
        0.0024219155311584473
      ],
      "type": "VEC2"
    },
    {
      "bufferView": 1,
      "byteOffset": 22543008,
      "componentType": 5126,
      "count": 65532,
      "max": [
        0.9927705526351929,
        0.9998912811279297
      ],
      "min": [
        0.0006469210493378341,
        0.0024219155311584473
      ],
      "type": "VEC2"
    },
    {
      "bufferView": 1,
      "byteOffset": 23067264,
      "componentType": 5126,
      "count": 65532,
      "max": [
        0.9927705526351929,
        0.9998912811279297
      ],
      "min": [
        0.0006469210493378341,
        0.0024219155311584473
      ],
      "type": "VEC2"
    },
    {
      "bufferView": 0,
      "byteOffset": 10954476,
      "componentType": 5125,
      "count": 334167,
      "type": "SCALAR"
    },
    {
      "bufferView": 2,
      "byteOffset": 14154912,
      "componentType": 5126,
      "count": 61559,
      "max": [
        0.44815099239349365,
        0.6818079948425293,
        0.7160851359367371
      ],
      "min": [
        -0.45165398716926575,
        -0.6800941228866577,
        0.3444610834121704
      ],
      "type": "VEC3"
    },
    {
      "bufferView": 2,
      "byteOffset": 14893620,
      "componentType": 5126,
      "count": 61559,
      "max": [
        0.999946653842926,
        0.9998055696487427,
        0.9999608397483826
      ],
      "min": [
        -0.9998824596405029,
        -0.9999836087226868,
        -0.9998735785484314
      ],
      "type": "VEC3"
    },
    {
      "bufferView": 3,
      "byteOffset": 9436608,
      "componentType": 5126,
      "count": 61559,
      "max": [
        0.9997763633728027,
        0.9999905824661255,
        0.9999266266822815,
        1.0
      ],
      "min": [
        -0.9999656677246094,
        -0.9999915361404419,
        -0.9999985694885254,
        -1.0
      ],
      "type": "VEC4"
    },
    {
      "bufferView": 1,
      "byteOffset": 23591520,
      "componentType": 5126,
      "count": 61559,
      "max": [
        0.9927705526351929,
        0.999965488910675
      ],
      "min": [
        0.000364452920621261,
        0.005006074905395508
      ],
      "type": "VEC2"
    },
    {
      "bufferView": 1,
      "byteOffset": 24083992,
      "componentType": 5126,
      "count": 61559,
      "max": [
        0.9927705526351929,
        0.999965488910675
      ],
      "min": [
        0.000364452920621261,
        0.005006074905395508
      ],
      "type": "VEC2"
    },
    {
      "bufferView": 1,
      "byteOffset": 24576464,
      "componentType": 5126,
      "count": 61559,
      "max": [
        0.9927705526351929,
        0.999965488910675
      ],
      "min": [
        0.000364452920621261,
        0.005006074905395508
      ],
      "type": "VEC2"
    },
    {
      "bufferView": 1,
      "byteOffset": 25068936,
      "componentType": 5126,
      "count": 61559,
      "max": [
        0.9927705526351929,
        0.999965488910675
      ],
      "min": [
        0.000364452920621261,
        0.005006074905395508
      ],
      "type": "VEC2"
    },
    {
      "bufferView": 1,
      "byteOffset": 25561408,
      "componentType": 5126,
      "count": 61559,
      "max": [
        0.9927705526351929,
        0.999965488910675
      ],
      "min": [
        0.000364452920621261,
        0.005006074905395508
      ],
      "type": "VEC2"
    },
    {
      "bufferView": 0,
      "byteOffset": 12291144,
      "componentType": 5125,
      "count": 311568,
      "type": "SCALAR"
    }
  ],
  "asset": {
    "extras": {
      "author": "iRahulRajput (https://sketchfab.com/rt699448)",
      "license": "CC-BY-4.0 (http://creativecommons.org/licenses/by/4.0/)",
      "source": "https://sketchfab.com/3d-models/baby-elephant-3d-model-free-c82ee70a086e4b99a64f51d1fa42b97b",
      "title": "Baby Elephant 3d model free"
    },
    "generator": "Sketchfab-17.15.0",
    "version": "2.0"
  },
  "bufferViews": [
    {
      "buffer": 0,
      "byteLength": 13537416,
      "name": "floatBufferViews",
      "target": 34963
    },
    {
      "buffer": 0,
      "byteLength": 26053880,
      "byteOffset": 13537416,
      "byteStride": 8,
      "name": "floatBufferViews",
      "target": 34962
    },
    {
      "buffer": 0,
      "byteLength": 15632328,
      "byteOffset": 39591296,
      "byteStride": 12,
      "name": "floatBufferViews",
      "target": 34962
    },
    {
      "buffer": 0,
      "byteLength": 10421552,
      "byteOffset": 55223624,
      "byteStride": 16,
      "name": "floatBufferViews",
      "target": 34962
    }
  ],
  "buffers": [
    {
      "byteLength": 65645176,
      "uri": "scene.bin"
    }
  ],
  "extensionsUsed": [
    "KHR_materials_specular"
  ],
  "images": [
    {
      "uri": "textures/material_0_baseColor.jpeg"
    },
    {
      "uri": "textures/material_0_metallicRoughness.png"
    },
    {
      "uri": "textures/material_0_emissive.jpeg"
    },
    {
      "uri": "textures/material_0_normal.jpeg"
    }
  ],
  "materials": [
    {
      "doubleSided": true,
      "emissiveFactor": [
        1.0,
        1.0,
        1.0
      ],
      "emissiveTexture": {
        "index": 2,
        "texCoord": 2
      },
      "extensions": {
        "KHR_materials_specular": {
          "specularColorFactor": [
            1.0,
            1.0,
            1.0
          ],
          "specularFactor": 0.0
        }
      },
      "name": "material_0",
      "normalTexture": {
        "index": 3,
        "texCoord": 3
      },
      "pbrMetallicRoughness": {
        "baseColorTexture": {
          "index": 0
        },
        "metallicRoughnessTexture": {
          "index": 1,
          "texCoord": 1
        }
      }
    }
  ],
  "meshes": [
    {
      "name": "Object_0",
      "primitives": [
        {
          "attributes": {
            "NORMAL": 1,
            "POSITION": 0,
            "TANGENT": 2,
            "TEXCOORD_0": 3,
            "TEXCOORD_1": 4,
            "TEXCOORD_2": 5,
            "TEXCOORD_3": 6,
            "TEXCOORD_4": 7
          },
          "indices": 8,
          "material": 0,
          "mode": 4
        }
      ]
    },
    {
      "name": "Object_1",
      "primitives": [
        {
          "attributes": {
            "NORMAL": 10,
            "POSITION": 9,
            "TANGENT": 11,
            "TEXCOORD_0": 12,
            "TEXCOORD_1": 13,
            "TEXCOORD_2": 14,
            "TEXCOORD_3": 15,
            "TEXCOORD_4": 16
          },
          "indices": 17,
          "material": 0,
          "mode": 4
        }
      ]
    },
    {
      "name": "Object_2",
      "primitives": [
        {
          "attributes": {
            "NORMAL": 19,
            "POSITION": 18,
            "TANGENT": 20,
            "TEXCOORD_0": 21,
            "TEXCOORD_1": 22,
            "TEXCOORD_2": 23,
            "TEXCOORD_3": 24,
            "TEXCOORD_4": 25
          },
          "indices": 26,
          "material": 0,
          "mode": 4
        }
      ]
    },
    {
      "name": "Object_3",
      "primitives": [
        {
          "attributes": {
            "NORMAL": 28,
            "POSITION": 27,
            "TANGENT": 29,
            "TEXCOORD_0": 30,
            "TEXCOORD_1": 31,
            "TEXCOORD_2": 32,
            "TEXCOORD_3": 33,
            "TEXCOORD_4": 34
          },
          "indices": 35,
          "material": 0,
          "mode": 4
        }
      ]
    },
    {
      "name": "Object_4",
      "primitives": [
        {
          "attributes": {
            "NORMAL": 37,
            "POSITION": 36,
            "TANGENT": 38,
            "TEXCOORD_0": 39,
            "TEXCOORD_1": 40,
            "TEXCOORD_2": 41,
            "TEXCOORD_3": 42,
            "TEXCOORD_4": 43
          },
          "indices": 44,
          "material": 0,
          "mode": 4
        }
      ]
    },
    {
      "name": "Object_5",
      "primitives": [
        {
          "attributes": {
            "NORMAL": 46,
            "POSITION": 45,
            "TANGENT": 47,
            "TEXCOORD_0": 48,
            "TEXCOORD_1": 49,
            "TEXCOORD_2": 50,
            "TEXCOORD_3": 51,
            "TEXCOORD_4": 52
          },
          "indices": 53,
          "material": 0,
          "mode": 4
        }
      ]
    },
    {
      "name": "Object_6",
      "primitives": [
        {
          "attributes": {
            "NORMAL": 55,
            "POSITION": 54,
            "TANGENT": 56,
            "TEXCOORD_0": 57,
            "TEXCOORD_1": 58,
            "TEXCOORD_2": 59,
            "TEXCOORD_3": 60,
            "TEXCOORD_4": 61
          },
          "indices": 62,
          "material": 0,
          "mode": 4
        }
      ]
    },
    {
      "name": "Object_7",
      "primitives": [
        {
          "attributes": {
            "NORMAL": 64,
            "POSITION": 63,
            "TANGENT": 65,
            "TEXCOORD_0": 66,
            "TEXCOORD_1": 67,
            "TEXCOORD_2": 68,
            "TEXCOORD_3": 69,
            "TEXCOORD_4": 70
          },
          "indices": 71,
          "material": 0,
          "mode": 4
        }
      ]
    },
    {
      "name": "Object_8",
      "primitives": [
        {
          "attributes": {
            "NORMAL": 73,
            "POSITION": 72,
            "TANGENT": 74,
            "TEXCOORD_0": 75,
            "TEXCOORD_1": 76,
            "TEXCOORD_2": 77,
            "TEXCOORD_3": 78,
            "TEXCOORD_4": 79
          },
          "indices": 80,
          "material": 0,
          "mode": 4
        }
      ]
    },
    {
      "name": "Object_9",
      "primitives": [
        {
          "attributes": {
            "NORMAL": 82,
            "POSITION": 81,
            "TANGENT": 83,
            "TEXCOORD_0": 84,
            "TEXCOORD_1": 85,
            "TEXCOORD_2": 86,
            "TEXCOORD_3": 87,
            "TEXCOORD_4": 88
          },
          "indices": 89,
          "material": 0,
          "mode": 4
        }
      ]
    }
  ],
  "nodes": [
    {
      "children": [
        1
      ],
      "matrix": [
        1.0,
        0.0,
        0.0,
        0.0,
        0.0,
        2.220446049250313e-16,
        -1.0,
        0.0,
        0.0,
        1.0,
        2.220446049250313e-16,
        0.0,
        0.0,
        0.0,
        0.0,
        1.0
      ],
      "name": "Sketchfab_model"
    },
    {
      "children": [
        2
      ],
      "name": "root"
    },
    {
      "children": [
        3
      ],
      "matrix": [
        1.0,
        0.0,
        0.0,
        0.0,
        0.0,
        2.220446049250313e-16,
        1.0,
        0.0,
        0.0,
        -1.0,
        2.220446049250313e-16,
        0.0,
        0.0,
        0.0,
        0.0,
        1.0
      ],
      "name": "GLTF_SceneRootNode"
    },
    {
      "children": [
        4,
        5,
        6,
        7,
        8,
        9,
        10,
        11,
        12,
        13
      ],
      "name": "_0"
    },
    {
      "mesh": 0,
      "name": "Object_4"
    },
    {
      "mesh": 1,
      "name": "Object_5"
    },
    {
      "mesh": 2,
      "name": "Object_6"
    },
    {
      "mesh": 3,
      "name": "Object_7"
    },
    {
      "mesh": 4,
      "name": "Object_8"
    },
    {
      "mesh": 5,
      "name": "Object_9"
    },
    {
      "mesh": 6,
      "name": "Object_10"
    },
    {
      "mesh": 7,
      "name": "Object_11"
    },
    {
      "mesh": 8,
      "name": "Object_12"
    },
    {
      "mesh": 9,
      "name": "Object_13"
    }
  ],
  "samplers": [
    {
      "magFilter": 9729,
      "minFilter": 9987,
      "wrapS": 10497,
      "wrapT": 10497
    }
  ],
  "scene": 0,
  "scenes": [
    {
      "name": "Sketchfab_Scene",
      "nodes": [
        0
      ]
    }
  ],
  "textures": [
    {
      "sampler": 0,
      "source": 0
    },
    {
      "sampler": 0,
      "source": 1
    },
    {
      "sampler": 0,
      "source": 2
    },
    {
      "sampler": 0,
      "source": 3
    }
  ]
}
